<?xml version="1.0" encoding="utf-8"?>
<!-- Generator: Adobe Illustrator 23.0.2, SVG Export Plug-In . SVG Version: 6.00 Build 0)  -->
<svg version="1.1" id="Layer_1" xmlns="http://www.w3.org/2000/svg" xmlns:xlink="http://www.w3.org/1999/xlink" x="0px" y="0px"
	 viewBox="0 0 138 109" style="enable-background:new 0 0 138 109;" xml:space="preserve">
<style type="text/css">
	.st0{fill-rule:evenodd;clip-rule:evenodd;fill:#0C6B3A;}
	.st1{fill-rule:evenodd;clip-rule:evenodd;fill:#1C7C47;}
	.st2{fill-rule:evenodd;clip-rule:evenodd;fill:#A6CE39;}
	.st3{fill-rule:evenodd;clip-rule:evenodd;fill:#B8E885;}
	.st4{clip-path:url(#SVGID_8_);fill-rule:evenodd;clip-rule:evenodd;fill:#1C7C47;}
	.st5{clip-path:url(#SVGID_11_);fill:#B8E885;}
	.st6{enable-background:new    ;}
	.st7{fill:#FFFFFF;}
	.st8{clip-path:url(#SVGID_13_);fill:#A6CE39;}
</style>
<g>
	<g>
		<path id="SVGID_1_" class="st0" d="M2.8,29.5L40,10.6c2.1-1.1,4.8-0.2,5.9,1.9L81.8,83c1.1,2.1,0.2,4.8-1.9,5.9l-37.2,18.9
			c-2.1,1.1-4.8,0.2-5.9-1.9L0.9,35.4C-0.2,33.3,0.6,30.6,2.8,29.5z"/>
	</g>
</g>
<path class="st1" d="M21.6,19.9L2.8,29.5c-2.2,1.1-3,3.8-1.9,5.9l35.9,70.5c1.1,2.1,3.8,3,5.9,1.9l18.5-9.4L21.6,19.9z"/>
<g>
	<path id="SVGID_3_" class="st2" d="M32,11l40.9-8c2.4-0.5,4.7,1.1,5.2,3.5l15.1,77.6c0.5,2.4-1.1,4.7-3.5,5.2l-40.9,8
		c-2.4,0.5-4.7-1.1-5.2-3.5l-15-77.6C28.1,13.8,29.7,11.5,32,11z"/>
</g>
<g>
	<defs>
		<path id="SVGID_2_" d="M32.1,11L73,3c2.4-0.5,4.7,1.1,5.2,3.5l15.1,77.6c0.5,2.4-1.1,4.7-3.5,5.2l-40.9,8
			c-2.4,0.5-4.7-1.1-5.2-3.5l-15-77.6C28.2,13.8,29.8,11.5,32.1,11z"/>
	</defs>
	<clipPath id="SVGID_4_">
		<use xlink:href="#SVGID_2_"  style="overflow:visible;"/>
	</clipPath>
</g>
<title>Solicita_icon</title>
<desc>Created with Sketch.</desc>
<path class="st3" d="M50.6,7.4L32,11c-2.3,0.5-3.9,2.8-3.4,5.2l15,77.6c0.5,2.4,2.8,4,5.2,3.5l18.5-3.6L50.6,7.4z"/>
<g id="Group-27-Copy-2">
	<g id="Group-28" transform="translate(59.319153, -0.000000)">
		<g transform="translate(0.680847, 0.000000)">
			<g>
				<g>
					<path id="SVGID_5_" class="st0" d="M2.4,0h41.2C46,0,48,2,48,4.4v79.2c0,2.4-2,4.4-4.4,4.4H2.4C0,88-2,86-2,83.6V4.4
						C-2,2,0,0,2.4,0z"/>
				</g>
				<g>
					<defs>
						<path id="SVGID_6_" d="M2.4,0h41.2C46,0,48,2,48,4.4v79.2c0,2.4-2,4.4-4.4,4.4H2.4C0,88-2,86-2,83.6V4.4C-2,2,0,0,2.4,0z"/>
					</defs>
					<clipPath id="SVGID_8_">
						<use xlink:href="#SVGID_6_"  style="overflow:visible;"/>
					</clipPath>
					<polygon class="st4" points="-4,-1.1 24,-1.1 24,88.7 -4,88.7 					"/>
				</g>
			</g>
		</g>
		<g id="Oval-2" transform="translate(9.967742, 27.574257)">
			<g>
				<g>
					<circle id="SVGID_7_" class="st2" cx="14.7" cy="16.4" r="16"/>
				</g>
				<g>
					<defs>
						<circle id="SVGID_10_" cx="14.7" cy="16.4" r="16"/>
					</defs>
					<clipPath id="SVGID_11_">
						<use xlink:href="#SVGID_10_"  style="overflow:visible;"/>
					</clipPath>
					<rect id="Rectangle" x="-3.3" y="-1.2" class="st5" width="18" height="35"/>
				</g>
			</g>
			<g class="st6">
				<path class="st7" d="M19.1,7.3l-0.7,3.3c-0.7-0.7-1.7-1-3-1S13,10.1,12.2,11c-0.5,0.5-0.8,1.2-1,2h6.6l-0.4,1.9H11
					c0,0.2,0,0.4,0,0.7s0,0.6,0,0.9h6.1l-0.4,1.9h-5.5c0.2,0.9,0.5,1.5,0.9,2c0.8,0.9,1.8,1.4,3.1,1.4c1.5,0,2.7-0.5,3.7-1.4v3.7
					c-1,0.5-2.2,0.8-3.6,0.8c-2.3,0-4.2-0.8-5.7-2.4c-1-1.1-1.7-2.4-2-4.1H5.9l0.4-1.9h1.2c0-0.2,0-0.4,0-0.6c0-0.4,0-0.7,0-1H5.9
					L6.3,13h1.4c0.3-1.6,1-2.9,2-4c1.5-1.6,3.5-2.4,5.9-2.4C17,6.6,18.1,6.8,19.1,7.3z"/>
			</g>
		</g>
	</g>
</g>
<g id="Page-1-Copy-45" transform="translate(85.645161, 55.049505)">
	<g id="Group-14">
		<g>
			<g>
				<circle id="SVGID_9_" class="st3" cx="26.4" cy="26" r="25"/>
			</g>
			<g>
				<defs>
					<circle id="SVGID_12_" cx="26.4" cy="26" r="25"/>
				</defs>
				<clipPath id="SVGID_13_">
					<use xlink:href="#SVGID_12_"  style="overflow:visible;"/>
				</clipPath>
				<rect x="26.8" y="-1" class="st8" width="27.6" height="55"/>
			</g>
		</g>
	</g>
	<path class="st7" d="M39.2,34.2c-0.3,0-0.6-0.1-0.9-0.2L26,27.8c-0.7-0.3-1.1-1-1.1-1.8V12.1c0-1.1,0.9-2,2-2s2,0.9,2,2v12.7
		l11.2,5.6c1,0.5,1.4,1.7,0.9,2.7C40.6,33.8,39.9,34.2,39.2,34.2z"/>
</g>
</svg>
