<?xml version="1.0" encoding="utf-8"?>
<!-- Generator: Adobe Illustrator 23.0.2, SVG Export Plug-In . SVG Version: 6.00 Build 0)  -->
<svg version="1.1" id="Layer_1" xmlns="http://www.w3.org/2000/svg" xmlns:xlink="http://www.w3.org/1999/xlink" x="0px" y="0px"
	 viewBox="0 0 116 142" style="enable-background:new 0 0 116 142;" xml:space="preserve">
<style type="text/css">
	.st0{fill-rule:evenodd;clip-rule:evenodd;fill:#0C6B3A;}
	.st1{fill:#A6CE39;}
	.st2{fill-rule:evenodd;clip-rule:evenodd;fill:#A6CE39;}
	.st3{filter:url(#Adobe_OpacityMaskFilter);}
	.st4{fill-rule:evenodd;clip-rule:evenodd;fill:#FFFFFF;}
	.st5{mask:url(#mask-2_1_);fill-rule:evenodd;clip-rule:evenodd;fill:#B8E885;}
	.st6{filter:url(#Adobe_OpacityMaskFilter_1_);}
	.st7{mask:url(#mask-6_1_);fill-rule:evenodd;clip-rule:evenodd;fill:#1C7C47;}
	.st8{filter:url(#Adobe_OpacityMaskFilter_2_);}
	.st9{mask:url(#mask-8_1_);fill:#B8E885;}
	.st10{fill:#FFFFFF;}
</style>
<title>Tienes_icon</title>
<desc>Created with Sketch.</desc>
<g id="Page-1">
	<g id="vivus.es_icons_2.png" transform="translate(-1384.000000, -1203.000000)">
		<g id="Tienes_icon" transform="translate(1384.000000, 1203.000000)">
			<path id="Rectangle-2" class="st0" d="M5.5,91h105c3,0,5.5,2.5,5.5,5.5l0,0c0,3-2.5,5.5-5.5,5.5H5.5c-3,0-5.5-2.5-5.5-5.5l0,0
				C0,93.5,2.5,91,5.5,91z"/>
			<g>
				<path class="st1" d="M110.5,64H5.5c-3,0-5.5-2.5-5.5-5.5S2.5,53,5.5,53h105c3,0,5.5,2.5,5.5,5.5S113.5,64,110.5,64z"/>
			</g>
			<g id="Oval-4" transform="translate(27.000000, 82.000000)">
				<g id="Oval">
					<circle class="st2" cx="14" cy="14" r="14"/>
				</g>
				<defs>
					<filter id="Adobe_OpacityMaskFilter" filterUnits="userSpaceOnUse" x="-7" y="-2" width="21" height="32">
						<feColorMatrix  type="matrix" values="1 0 0 0 0  0 1 0 0 0  0 0 1 0 0  0 0 0 1 0"/>
					</filter>
				</defs>
				<mask maskUnits="userSpaceOnUse" x="-7" y="-2" width="21" height="32" id="mask-2_1_">
					<g class="st3">
						<circle id="path-1_1_" class="st4" cx="14" cy="14" r="14"/>
					</g>
				</mask>
				<rect id="Rectangle" x="-7" y="-2" class="st5" width="21" height="32"/>
			</g>
			<g id="Oval-Copy-6" transform="translate(58.000000, 44.000000)">
				<g id="Oval-Copy">
					<circle class="st0" cx="14" cy="14" r="14"/>
				</g>
				<defs>
					<filter id="Adobe_OpacityMaskFilter_1_" filterUnits="userSpaceOnUse" x="-7" y="-4" width="21" height="32">
						<feColorMatrix  type="matrix" values="1 0 0 0 0  0 1 0 0 0  0 0 1 0 0  0 0 0 1 0"/>
					</filter>
				</defs>
				<mask maskUnits="userSpaceOnUse" x="-7" y="-4" width="21" height="32" id="mask-6_1_">
					<g class="st6">
						<circle id="path-5_1_" class="st4" cx="14" cy="14" r="14"/>
					</g>
				</mask>
				<rect x="-7" y="-4" class="st7" width="21" height="32"/>
			</g>
			<g id="Page-1-Copy-121" transform="translate(47.000000, 0.000000)">
				<g id="Group-2">
					<g id="Combined-Shape-2" transform="translate(0.896226, 0.000000)">
						<g id="Combined-Shape">
							<path class="st2" d="M30.8,34L25,39.8L19.2,34H3c-1.6,0-2.9-1.3-2.9-2.9V2.9C0.1,1.3,1.4,0,3,0h44.2c1.6,0,2.9,1.3,2.9,2.9
								v28.2c0,1.6-1.3,2.9-2.9,2.9H30.8z"/>
						</g>
						<defs>
							<filter id="Adobe_OpacityMaskFilter_2_" filterUnits="userSpaceOnUse" x="-0.9" y="-2" width="26" height="42.7">
								<feColorMatrix  type="matrix" values="1 0 0 0 0  0 1 0 0 0  0 0 1 0 0  0 0 0 1 0"/>
							</filter>
						</defs>
						<mask maskUnits="userSpaceOnUse" x="-0.9" y="-2" width="26" height="42.7" id="mask-8_1_">
							<g class="st8">
								<path id="path-7_1_" class="st4" d="M30.8,34L25,39.8L19.2,34H3c-1.6,0-2.9-1.3-2.9-2.9V2.9C0.1,1.3,1.4,0,3,0h44.2
									c1.6,0,2.9,1.3,2.9,2.9v28.2c0,1.6-1.3,2.9-2.9,2.9H30.8z"/>
							</g>
						</mask>
						<rect x="-0.9" y="-2" class="st9" width="26" height="42.7"/>
					</g>
					<path class="st10" d="M28.9,21.6c1.1,0,1.8-0.1,2.8-0.2c0.3,0,0.4,0.1,0.4,0.3v1.7c0,0.2-0.1,0.3-0.4,0.5
						c-1,0.4-2.3,0.6-3.6,0.6c-4.5,0-6.3-2.3-6.6-6.4h-1.3c-0.3,0-0.4-0.1-0.4-0.4V17c0-0.3,0.1-0.4,0.4-0.4h1.2V15h-1.2
						c-0.3,0-0.4-0.1-0.4-0.4v-0.7c0-0.3,0.1-0.4,0.4-0.4h1.3c0.3-4,2-6.4,6.6-6.4c1.1,0,2.4,0.2,3.4,0.6c0.3,0.1,0.4,0.2,0.4,0.5
						v1.7c0,0.2-0.1,0.4-0.4,0.3c-1.1-0.1-1.6-0.2-2.6-0.2c-2.4,0-3.4,1.1-3.6,3.4h4.9c0.3,0,0.4,0.1,0.4,0.4v0.7
						c0,0.3-0.1,0.4-0.4,0.4h-5v1.6h5c0.3,0,0.4,0.1,0.4,0.4v0.7c0,0.3-0.1,0.4-0.4,0.4h-5C25.5,20.5,26.4,21.6,28.9,21.6z"/>
				</g>
			</g>
		</g>
	</g>
</g>
<g>
	<defs>
		<polygon id="SVGID_1_" points="104.3,123.3 71.4,93 71.4,137.8 81.4,128.2 87.2,141.6 96.4,137.6 90.5,124.2 		"/>
	</defs>
	<use xlink:href="#SVGID_1_"  style="overflow:visible;fill:#A6CE39;"/>
	<clipPath id="SVGID_2_">
		<use xlink:href="#SVGID_1_"  style="overflow:visible;"/>
	</clipPath>
</g>
<g>
	<defs>
		<polygon id="SVGID_3_" points="104.3,123.3 71.4,93 91.9,139.6 96.4,137.6 90.5,124.2 		"/>
	</defs>
	<use xlink:href="#SVGID_3_"  style="overflow:visible;fill:#B8E885;"/>
	<clipPath id="SVGID_4_">
		<use xlink:href="#SVGID_3_"  style="overflow:visible;"/>
	</clipPath>
</g>
</svg>
